<?xml version="1.0" encoding="UTF-8"?>
<svg id="Layer_1" data-name="Layer 1" xmlns="http://www.w3.org/2000/svg" viewBox="0 0 1080 1080">
  <defs>
    <style>
      .cls-1 {
        fill: #a576ff;
      }

      .cls-2 {
        fill: #00033d;
      }

      .cls-3 {
        fill: #140d44;
      }

      .cls-4 {
        fill: #f4f1ff;
      }
    </style>
  </defs>
  <g>
    <g>
      <path class="cls-4" d="m370.37,475c-24.74,0-40.84-18.43-40.84-43.17s15.98-43.41,40.84-43.41c19.6,0,32.55,11.2,36.64,29.64l-21.12.93c-1.87-8.4-7.47-13.77-15.98-13.77-13.07,0-19.37,11.09-19.37,26.6s6.3,26.37,19.37,26.37c8.75,0,14.47-5.83,15.98-14.82l21.35.93c-3.97,19.02-16.92,30.69-36.87,30.69Z"/>
      <path class="cls-4" d="m432.2,411.3l.35,12.6c2.45-8.28,7.23-12.6,14.94-12.6h5.6v14.7h-5.72c-10.39,0-14.47,4.43-14.47,13.65v33.49h-20.3v-61.84h19.6Z"/>
      <path class="cls-4" d="m484.12,409.9c18.32,0,31.85,12.83,31.39,34.53v2.92h-43.29c.47,7.93,4.9,12.84,11.9,12.84,4.55,0,8.63-2.57,10.27-6.77l20.3,1.52c-3.85,12.02-15.63,19.6-30.57,19.6-19.95,0-33.02-12.84-33.02-32.32s13.07-32.32,33.02-32.32Zm11.08,26.14c-.7-8.17-5.48-11.79-11.08-11.79-6.65,0-11.08,4.43-11.78,11.79h22.87Z"/>
      <path class="cls-4" d="m550.15,409.9c19.84,0,29.75,9.1,29.75,27.3v17.5c0,4.55,1.87,5.25,3.97,5.25h2.1v13.19l-2.8.23c-3.15.12-17.5,2.33-19.72-9.57-3.15,6.65-10.27,10.73-22.05,10.73-12.6,0-22.17-6.77-22.17-17.73s8.17-15.75,23.57-18.78l16.57-3.38c0-8.52-2.92-12.49-9.22-12.49-5.37,0-8.63,3.15-9.68,9.57l-20.3-.93c2.45-13.65,12.72-20.88,29.99-20.88Zm-1.87,52.27c6.77,0,11.43-5.13,11.43-15.17v-.7l-8.75,1.63c-6.54,1.28-10.97,2.56-10.97,8.05,0,3.5,2.92,6.19,8.28,6.19Z"/>
      <path class="cls-4" d="m682.24,390.29v28.71c3.62-6.77,10.03-9.1,17.39-9.1,13.18,0,20.77,9.8,20.77,23.45v39.79h-20.3v-32.67c0-9.22-1.52-14.47-8.17-14.47s-9.68,5.25-9.68,14.47v32.67h-20.3v-82.84h20.3Z"/>
      <path class="cls-4" d="m756.32,409.9c19.84,0,29.75,9.1,29.75,27.3v17.5c0,4.55,1.87,5.25,3.97,5.25h2.1v13.19l-2.8.23c-3.15.12-17.5,2.33-19.72-9.57-3.15,6.65-10.27,10.73-22.05,10.73-12.6,0-22.17-6.77-22.17-17.73s8.17-15.75,23.57-18.78l16.57-3.38c0-8.52-2.92-12.49-9.22-12.49-5.37,0-8.63,3.15-9.68,9.57l-20.3-.93c2.45-13.65,12.72-20.88,29.99-20.88Zm-1.87,52.27c6.77,0,11.43-5.13,11.43-15.17v-.7l-8.75,1.63c-6.54,1.28-10.97,2.56-10.97,8.05,0,3.5,2.92,6.19,8.28,6.19Z"/>
      <path class="cls-4" d="m837.18,473.14l-.47-9.45c-3.38,7.94-10.15,10.85-18.09,10.85-13.07,0-21.24-8.75-21.24-23.45v-39.79h20.3v32.9c0,9.33,1.52,14.59,8.05,14.59s9.45-5.25,9.45-14.59v-32.9h20.3v61.84h-18.32Z"/>
      <path class="cls-4" d="m891.54,423.08c-4.79,0-8.28,2.56-8.05,6.53.23,3.96,4.55,5.83,10.15,6.65,19.72,3.03,28.12,8.05,28.12,19.6,0,12.37-11.44,18.67-28.59,18.67-19.25,0-30.92-7.82-31.97-21.12l20.3-.82c1.05,5.37,4.79,8.52,11.09,8.52,4.08,0,8.52-1.75,8.4-5.49-.12-4.55-5.02-5.71-10.73-6.76-19.02-3.5-27.65-8.17-27.65-19.25,0-12.49,10.62-19.84,29.52-19.84,16.68,0,27.42,7.82,29.4,21.24l-20.07.7c-.93-5.37-5.13-8.63-9.92-8.63Z"/>
      <path class="cls-4" d="m634,439.08c-.09.04-.17.09-.26.14-.18-.21-.42-.48-.72-.8.31.25.63.46.98.66Z"/>
      <path class="cls-4" d="m619.69,446.18c.26.32.61.72,1.05,1.2-.45-.35-.94-.66-1.45-.92.14-.1.27-.19.39-.29Z"/>
      <path class="cls-4" d="m642.78,400.7c-11.7-6.46-26.48-2.2-32.94,9.5-2.56,4.64-3.51,9.87-2.78,15.02,2.09-.64,4.46-1.09,7.06-1.18,3.11-.1,5.88.33,8.26,1-.89-2.49-.69-5.25.6-7.59,2.46-4.46,8.09-6.08,12.55-3.62,4.46,2.46,6.08,8.08,3.62,12.54-1.47,2.66-4.16,4.43-7.2,4.73-1.08.1-2.15.03-3.18-.24-.39-.09-.77-.21-1.13-.37-.35-.15-.7-.31-1.04-.5-.78-.43-1.57-.81-2.38-1.16l-.02-.04c-2.91-1.17-7-2.19-11.83-1.66-5.61.6-9.74,3-12.12,4.76-.12.09-.24.17-.36.27-.29.23-.54.43-.76.62-.18.14-.33.27-.46.39-1.98,1.77-3.68,3.9-5.01,6.31-3.12,5.66-3.86,12.21-2.07,18.44,1.8,6.23,5.91,11.38,11.57,14.5,5.67,3.13,12.21,3.86,18.44,2.07,6.23-1.8,11.38-5.9,14.5-11.57,2.57-4.66,3.53-9.89,2.78-15.06-1.62.5-3.4.88-5.35,1.07-3.8.37-7.17-.11-9.99-.89.92,2.5.72,5.28-.58,7.63-2.46,4.45-8.09,6.07-12.54,3.62-4.46-2.46-6.08-8.09-3.62-12.55,1.19-2.16,3.19-3.73,5.52-4.4.54-.16,1.1-.27,1.67-.33.88-.09,1.75-.05,2.59.11.57.11,1.12.27,1.66.48t.01,0c.37.13.73.31,1.09.5.79.43,1.58.82,2.39,1.15l.03.05c2.51.99,5.78,1.83,9.63,1.75,8.4-.19,13.99-4.62,15.56-5.97.02.02.04.03.06.04,2.11-1.82,3.89-4.03,5.27-6.53,3.23-5.85,3.79-12.47,2.07-18.44-1.72-5.96-5.72-11.27-11.57-14.5Z"/>
    </g>
    <path class="cls-1" d="m294.21,380.59l-55.32-38.77c-4.55-3.19-10.29-3.19-14.85,0l-55.32,38.77c-6.37,4.46-10.25,12.38-10.25,20.9v77.54c0,8.93,6.35,16.16,14.18,16.16h117.63c7.83,0,14.18-7.24,14.18-16.16v-77.54c0-8.52-3.88-16.44-10.25-20.9Zm-21.96,45.47c-1.92,3.48-4.4,6.56-7.33,9.09-.03-.02-.07-.04-.09-.06-2.18,1.87-9.95,8.04-21.65,8.3-5.35.12-9.9-1.05-13.39-2.43l-.04-.08c-1.13-.47-2.24-1.01-3.33-1.6-.5-.27-1-.52-1.51-.7t-.02,0c-.75-.3-1.52-.53-2.31-.67-1.17-.22-2.38-.28-3.6-.16-.78.08-1.56.23-2.32.45-3.24.94-6.03,3.12-7.68,6.12-3.43,6.2-1.17,14.03,5.04,17.46,6.2,3.41,14.02,1.16,17.45-5.03,1.81-3.27,2.09-7.14.81-10.62,3.92,1.09,8.61,1.75,13.9,1.24,2.7-.26,5.19-.79,7.44-1.48,1.04,7.19-.29,14.47-3.87,20.95-4.34,7.88-11.51,13.59-20.18,16.09-8.66,2.5-17.77,1.48-25.65-2.87-7.86-4.34-13.59-11.51-16.09-20.18-2.5-8.66-1.47-17.77,2.87-25.65,1.85-3.36,4.21-6.31,6.97-8.78.18-.17.39-.34.64-.54.31-.26.66-.55,1.06-.87.16-.13.33-.25.5-.37,3.31-2.44,9.05-5.78,16.86-6.62,6.72-.73,12.4.69,16.45,2.31l.03.05c1.13.48,2.24,1.01,3.32,1.61.48.26.96.49,1.45.69.51.21,1.03.38,1.57.51,1.43.38,2.92.48,4.42.34,4.23-.41,7.97-2.88,10.02-6.58,3.43-6.2,1.17-14.02-5.03-17.45-6.2-3.43-14.03-1.17-17.46,5.04-1.8,3.26-2.07,7.09-.83,10.55-3.31-.93-7.17-1.53-11.49-1.4-3.62.12-6.92.74-9.83,1.64-1.02-7.17.3-14.43,3.87-20.89,8.99-16.28,29.55-22.21,45.82-13.22,8.14,4.49,13.7,11.88,16.09,20.18,2.39,8.3,1.62,17.51-2.87,25.65Z"/>
  </g>
  <g>
    <g>
      <path class="cls-4" d="m370.12,229.63c-24.74,0-40.84-18.43-40.84-43.17s15.98-43.41,40.84-43.41c19.6,0,32.55,11.2,36.64,29.64l-21.12.93c-1.87-8.4-7.47-13.77-15.98-13.77-13.07,0-19.37,11.09-19.37,26.6s6.3,26.37,19.37,26.37c8.75,0,14.47-5.83,15.98-14.82l21.35.93c-3.97,19.02-16.92,30.69-36.87,30.69Z"/>
      <path class="cls-4" d="m431.95,165.92l.35,12.6c2.45-8.28,7.23-12.6,14.94-12.6h5.6v14.7h-5.72c-10.39,0-14.47,4.43-14.47,13.65v33.49h-20.3v-61.84h19.6Z"/>
      <path class="cls-4" d="m483.87,164.52c18.32,0,31.85,12.83,31.39,34.53v2.92h-43.29c.47,7.93,4.9,12.84,11.9,12.84,4.55,0,8.63-2.57,10.27-6.77l20.3,1.52c-3.85,12.02-15.63,19.6-30.57,19.6-19.95,0-33.02-12.84-33.02-32.32s13.07-32.32,33.02-32.32Zm11.08,26.14c-.7-8.17-5.48-11.79-11.08-11.79-6.65,0-11.08,4.43-11.78,11.79h22.87Z"/>
      <path class="cls-4" d="m549.9,164.52c19.84,0,29.75,9.1,29.75,27.3v17.5c0,4.55,1.87,5.25,3.97,5.25h2.1v13.19l-2.8.23c-3.15.12-17.5,2.33-19.72-9.57-3.15,6.65-10.27,10.73-22.05,10.73-12.6,0-22.17-6.77-22.17-17.73s8.17-15.75,23.57-18.78l16.57-3.38c0-8.52-2.92-12.49-9.22-12.49-5.37,0-8.63,3.15-9.68,9.57l-20.3-.93c2.45-13.65,12.72-20.88,29.99-20.88Zm-1.87,52.27c6.77,0,11.43-5.13,11.43-15.17v-.7l-8.75,1.63c-6.54,1.28-10.97,2.56-10.97,8.05,0,3.5,2.92,6.19,8.28,6.19Z"/>
      <path class="cls-4" d="m681.99,144.92v28.71c3.62-6.77,10.03-9.1,17.39-9.1,13.18,0,20.77,9.8,20.77,23.45v39.79h-20.3v-32.67c0-9.22-1.52-14.47-8.17-14.47s-9.68,5.25-9.68,14.47v32.67h-20.3v-82.84h20.3Z"/>
      <path class="cls-4" d="m756.08,164.52c19.84,0,29.75,9.1,29.75,27.3v17.5c0,4.55,1.87,5.25,3.97,5.25h2.1v13.19l-2.8.23c-3.15.12-17.5,2.33-19.72-9.57-3.15,6.65-10.27,10.73-22.05,10.73-12.6,0-22.17-6.77-22.17-17.73s8.17-15.75,23.57-18.78l16.57-3.38c0-8.52-2.92-12.49-9.22-12.49-5.37,0-8.63,3.15-9.68,9.57l-20.3-.93c2.45-13.65,12.72-20.88,29.99-20.88Zm-1.87,52.27c6.77,0,11.43-5.13,11.43-15.17v-.7l-8.75,1.63c-6.54,1.28-10.97,2.56-10.97,8.05,0,3.5,2.92,6.19,8.28,6.19Z"/>
      <path class="cls-4" d="m836.93,227.76l-.47-9.45c-3.38,7.94-10.15,10.85-18.09,10.85-13.07,0-21.24-8.75-21.24-23.45v-39.79h20.3v32.9c0,9.33,1.52,14.59,8.05,14.59s9.45-5.25,9.45-14.59v-32.9h20.3v61.84h-18.32Z"/>
      <path class="cls-4" d="m891.29,177.71c-4.79,0-8.28,2.56-8.05,6.53.23,3.96,4.55,5.83,10.15,6.65,19.72,3.03,28.12,8.05,28.12,19.6,0,12.37-11.44,18.67-28.59,18.67-19.25,0-30.92-7.82-31.97-21.12l20.3-.82c1.05,5.37,4.79,8.52,11.09,8.52,4.08,0,8.52-1.75,8.4-5.49-.12-4.55-5.02-5.71-10.73-6.76-19.02-3.5-27.65-8.17-27.65-19.25,0-12.49,10.62-19.84,29.52-19.84,16.68,0,27.42,7.82,29.4,21.24l-20.07.7c-.93-5.37-5.13-8.63-9.92-8.63Z"/>
      <path class="cls-4" d="m633.75,193.7c-.09.04-.17.09-.26.14-.18-.21-.42-.48-.72-.8.31.25.63.46.98.66Z"/>
      <path class="cls-4" d="m619.44,200.81c.26.32.61.72,1.05,1.2-.45-.35-.94-.66-1.45-.92.14-.1.27-.19.39-.29Z"/>
      <path class="cls-4" d="m642.53,155.32c-11.7-6.46-26.48-2.2-32.94,9.5-2.56,4.64-3.51,9.87-2.78,15.02,2.09-.64,4.46-1.09,7.06-1.18,3.11-.1,5.88.33,8.26,1-.89-2.49-.69-5.25.6-7.59,2.46-4.46,8.09-6.08,12.55-3.62,4.46,2.46,6.08,8.08,3.62,12.54-1.47,2.66-4.16,4.43-7.2,4.73-1.08.1-2.15.03-3.18-.24-.39-.09-.77-.21-1.13-.37-.35-.15-.7-.31-1.04-.5-.78-.43-1.57-.81-2.38-1.16l-.02-.04c-2.91-1.17-7-2.19-11.83-1.66-5.61.6-9.74,3-12.12,4.76-.12.09-.24.17-.36.27-.29.23-.54.43-.76.62-.18.14-.33.27-.46.39-1.98,1.77-3.68,3.9-5.01,6.31-3.12,5.66-3.86,12.21-2.07,18.44s5.91,11.38,11.57,14.5c5.67,3.13,12.21,3.86,18.44,2.07,6.23-1.8,11.38-5.9,14.5-11.57,2.57-4.66,3.53-9.89,2.78-15.06-1.62.5-3.4.88-5.35,1.07-3.8.37-7.17-.11-9.99-.89.92,2.5.72,5.28-.58,7.63-2.46,4.45-8.09,6.07-12.54,3.62-4.46-2.46-6.08-8.09-3.62-12.55,1.19-2.16,3.19-3.73,5.52-4.4.54-.16,1.1-.27,1.67-.33.88-.09,1.75-.05,2.59.11.57.11,1.12.27,1.66.48t.01,0c.37.13.73.31,1.09.5.79.43,1.58.82,2.39,1.15l.03.05c2.51.99,5.78,1.83,9.63,1.75,8.4-.19,13.99-4.62,15.56-5.97.02.02.04.03.06.04,2.11-1.82,3.89-4.03,5.27-6.53,3.23-5.85,3.79-12.47,2.07-18.44-1.72-5.96-5.72-11.27-11.57-14.5Z"/>
    </g>
    <path class="cls-4" d="m293.97,135.21l-55.32-38.77c-4.55-3.19-10.29-3.19-14.85,0l-55.32,38.77c-6.37,4.46-10.25,12.38-10.25,20.9v77.54c0,8.93,6.35,16.16,14.18,16.16h117.63c7.83,0,14.18-7.24,14.18-16.16v-77.54c0-8.52-3.88-16.44-10.25-20.9Zm-21.96,45.47c-1.92,3.48-4.4,6.56-7.33,9.09-.03-.02-.07-.04-.09-.06-2.18,1.87-9.95,8.04-21.65,8.3-5.35.12-9.9-1.05-13.39-2.43l-.04-.08c-1.13-.47-2.24-1.01-3.33-1.6-.5-.27-1-.52-1.51-.7t-.02,0c-.75-.3-1.52-.53-2.31-.67-1.17-.22-2.38-.28-3.6-.16-.78.08-1.56.23-2.32.45-3.24.94-6.03,3.12-7.68,6.12-3.43,6.2-1.17,14.03,5.04,17.46,6.2,3.41,14.02,1.16,17.45-5.03,1.81-3.27,2.09-7.14.81-10.62,3.92,1.09,8.61,1.75,13.9,1.24,2.7-.26,5.19-.79,7.44-1.48,1.04,7.19-.29,14.47-3.87,20.95-4.34,7.88-11.51,13.59-20.18,16.09-8.66,2.5-17.77,1.48-25.65-2.87-7.86-4.34-13.59-11.51-16.09-20.18-2.5-8.66-1.47-17.77,2.87-25.65,1.85-3.36,4.21-6.31,6.97-8.78.18-.17.39-.34.64-.54.31-.26.66-.55,1.06-.87.16-.13.33-.25.5-.37,3.31-2.44,9.05-5.78,16.86-6.62,6.72-.73,12.4.69,16.45,2.31l.03.05c1.13.48,2.24,1.01,3.32,1.61.48.26.96.49,1.45.69.51.21,1.03.38,1.57.51,1.43.38,2.92.48,4.42.34,4.23-.41,7.97-2.88,10.02-6.58,3.43-6.2,1.17-14.02-5.03-17.45-6.2-3.43-14.03-1.17-17.46,5.04-1.8,3.26-2.07,7.09-.83,10.55-3.31-.93-7.17-1.53-11.49-1.4-3.62.12-6.92.74-9.83,1.64-1.02-7.17.3-14.43,3.87-20.89,8.99-16.28,29.55-22.21,45.82-13.22,8.14,4.49,13.7,11.88,16.09,20.18,2.39,8.3,1.62,17.51-2.87,25.65Z"/>
  </g>
  <g>
    <g>
      <path class="cls-2" d="m370.25,965.75c-24.74,0-40.84-18.43-40.84-43.17s15.98-43.41,40.84-43.41c19.6,0,32.55,11.2,36.64,29.64l-21.12.93c-1.87-8.4-7.47-13.77-15.98-13.77-13.07,0-19.37,11.09-19.37,26.6s6.3,26.37,19.37,26.37c8.75,0,14.47-5.83,15.98-14.82l21.35.93c-3.97,19.02-16.92,30.69-36.87,30.69Z"/>
      <path class="cls-2" d="m432.08,902.05l.35,12.6c2.45-8.28,7.23-12.6,14.94-12.6h5.6v14.7h-5.72c-10.39,0-14.47,4.43-14.47,13.65v33.49h-20.3v-61.84h19.6Z"/>
      <path class="cls-2" d="m483.99,900.65c18.32,0,31.85,12.83,31.39,34.53v2.92h-43.29c.47,7.93,4.9,12.84,11.9,12.84,4.55,0,8.63-2.57,10.27-6.77l20.3,1.52c-3.85,12.02-15.63,19.6-30.57,19.6-19.95,0-33.02-12.84-33.02-32.32s13.07-32.32,33.02-32.32Zm11.08,26.14c-.7-8.17-5.48-11.79-11.08-11.79-6.65,0-11.08,4.43-11.78,11.79h22.87Z"/>
      <path class="cls-2" d="m550.03,900.65c19.84,0,29.75,9.1,29.75,27.3v17.5c0,4.55,1.87,5.25,3.97,5.25h2.1v13.19l-2.8.23c-3.15.12-17.5,2.33-19.72-9.57-3.15,6.65-10.27,10.73-22.05,10.73-12.6,0-22.17-6.77-22.17-17.73s8.17-15.75,23.57-18.78l16.57-3.38c0-8.52-2.92-12.49-9.22-12.49-5.37,0-8.63,3.15-9.68,9.57l-20.3-.93c2.45-13.65,12.72-20.88,29.99-20.88Zm-1.87,52.27c6.77,0,11.43-5.13,11.43-15.17v-.7l-8.75,1.63c-6.54,1.28-10.97,2.56-10.97,8.05,0,3.5,2.92,6.19,8.28,6.19Z"/>
      <path class="cls-2" d="m682.12,881.05v28.71c3.62-6.77,10.03-9.1,17.39-9.1,13.18,0,20.77,9.8,20.77,23.45v39.79h-20.3v-32.67c0-9.22-1.52-14.47-8.17-14.47s-9.68,5.25-9.68,14.47v32.67h-20.3v-82.84h20.3Z"/>
      <path class="cls-2" d="m756.2,900.65c19.84,0,29.75,9.1,29.75,27.3v17.5c0,4.55,1.87,5.25,3.97,5.25h2.1v13.19l-2.8.23c-3.15.12-17.5,2.33-19.72-9.57-3.15,6.65-10.27,10.73-22.05,10.73-12.6,0-22.17-6.77-22.17-17.73s8.17-15.75,23.57-18.78l16.57-3.38c0-8.52-2.92-12.49-9.22-12.49-5.37,0-8.63,3.15-9.68,9.57l-20.3-.93c2.45-13.65,12.72-20.88,29.99-20.88Zm-1.87,52.27c6.77,0,11.43-5.13,11.43-15.17v-.7l-8.75,1.63c-6.54,1.28-10.97,2.56-10.97,8.05,0,3.5,2.92,6.19,8.28,6.19Z"/>
      <path class="cls-2" d="m837.05,963.89l-.47-9.45c-3.38,7.94-10.15,10.85-18.09,10.85-13.07,0-21.24-8.75-21.24-23.45v-39.79h20.3v32.9c0,9.33,1.52,14.59,8.05,14.59s9.45-5.25,9.45-14.59v-32.9h20.3v61.84h-18.32Z"/>
      <path class="cls-2" d="m891.42,913.84c-4.79,0-8.28,2.56-8.05,6.53.23,3.96,4.55,5.83,10.15,6.65,19.72,3.03,28.12,8.05,28.12,19.6,0,12.37-11.44,18.67-28.59,18.67-19.25,0-30.92-7.82-31.97-21.12l20.3-.82c1.05,5.37,4.79,8.52,11.09,8.52,4.08,0,8.52-1.75,8.4-5.49-.12-4.55-5.02-5.71-10.73-6.76-19.02-3.5-27.65-8.17-27.65-19.25,0-12.49,10.62-19.84,29.52-19.84,16.68,0,27.42,7.82,29.4,21.24l-20.07.7c-.93-5.37-5.13-8.63-9.92-8.63Z"/>
      <path class="cls-2" d="m633.88,929.83c-.09.04-.17.09-.26.14-.18-.21-.42-.48-.72-.8.31.25.63.46.98.66Z"/>
      <path class="cls-2" d="m619.57,936.94c.26.32.61.72,1.05,1.2-.45-.35-.94-.66-1.45-.92.14-.1.27-.19.39-.29Z"/>
      <path class="cls-2" d="m642.66,891.45c-11.7-6.46-26.48-2.2-32.94,9.5-2.56,4.64-3.51,9.87-2.78,15.02,2.09-.64,4.46-1.09,7.06-1.18,3.11-.1,5.88.33,8.26,1-.89-2.49-.69-5.25.6-7.59,2.46-4.46,8.09-6.08,12.55-3.62,4.46,2.46,6.08,8.08,3.62,12.54-1.47,2.66-4.16,4.43-7.2,4.73-1.08.1-2.15.03-3.18-.24-.39-.09-.77-.21-1.13-.37-.35-.15-.7-.31-1.04-.5-.78-.43-1.57-.81-2.38-1.16l-.02-.04c-2.91-1.17-7-2.19-11.83-1.66-5.61.6-9.74,3-12.12,4.76-.12.09-.24.17-.36.27-.29.23-.54.43-.76.62-.18.14-.33.27-.46.39-1.98,1.77-3.68,3.9-5.01,6.31-3.12,5.66-3.86,12.21-2.07,18.44,1.8,6.23,5.91,11.38,11.57,14.5,5.67,3.13,12.21,3.86,18.44,2.07s11.38-5.9,14.5-11.57c2.57-4.66,3.53-9.89,2.78-15.06-1.62.5-3.4.88-5.35,1.07-3.8.37-7.17-.11-9.99-.89.92,2.5.72,5.28-.58,7.63-2.46,4.45-8.09,6.07-12.54,3.62-4.46-2.46-6.08-8.09-3.62-12.55,1.19-2.16,3.19-3.73,5.52-4.4.54-.16,1.1-.27,1.67-.33.88-.09,1.75-.05,2.59.11.57.11,1.12.27,1.66.48t.01,0c.37.13.73.31,1.09.5.79.43,1.58.82,2.39,1.15l.03.05c2.51.99,5.78,1.83,9.63,1.75,8.4-.19,13.99-4.62,15.56-5.97.02.02.04.03.06.04,2.11-1.82,3.89-4.03,5.27-6.53,3.23-5.85,3.79-12.47,2.07-18.44-1.72-5.96-5.72-11.27-11.57-14.5Z"/>
    </g>
    <path class="cls-2" d="m294.09,871.34l-55.32-38.77c-4.55-3.19-10.29-3.19-14.85,0l-55.32,38.77c-6.37,4.46-10.25,12.38-10.25,20.9v77.54c0,8.93,6.35,16.16,14.18,16.16h117.63c7.83,0,14.18-7.24,14.18-16.16v-77.54c0-8.52-3.88-16.44-10.25-20.9Zm-21.96,45.47c-1.92,3.48-4.4,6.56-7.33,9.09-.03-.02-.07-.04-.09-.06-2.18,1.87-9.95,8.04-21.65,8.3-5.35.12-9.9-1.05-13.39-2.43l-.04-.08c-1.13-.47-2.24-1.01-3.33-1.6-.5-.27-1-.52-1.51-.7t-.02,0c-.75-.3-1.52-.53-2.31-.67-1.17-.22-2.38-.28-3.6-.16-.78.08-1.56.23-2.32.45-3.24.94-6.03,3.12-7.68,6.12-3.43,6.2-1.17,14.03,5.04,17.46,6.2,3.41,14.02,1.16,17.45-5.03,1.81-3.27,2.09-7.14.81-10.62,3.92,1.09,8.61,1.75,13.9,1.24,2.7-.26,5.19-.79,7.44-1.48,1.04,7.19-.29,14.47-3.87,20.95-4.34,7.88-11.51,13.59-20.18,16.09-8.66,2.5-17.77,1.48-25.65-2.87-7.86-4.34-13.59-11.51-16.09-20.18-2.5-8.66-1.47-17.77,2.87-25.65,1.85-3.36,4.21-6.31,6.97-8.78.18-.17.39-.34.64-.54.31-.26.66-.55,1.06-.87.16-.13.33-.25.5-.37,3.31-2.44,9.05-5.78,16.86-6.62,6.72-.73,12.4.69,16.45,2.31l.03.05c1.13.48,2.24,1.01,3.32,1.61.48.26.96.49,1.45.69.51.21,1.03.38,1.57.51,1.43.38,2.92.48,4.42.34,4.23-.41,7.97-2.88,10.02-6.58,3.43-6.2,1.17-14.02-5.03-17.45-6.2-3.43-14.03-1.17-17.46,5.04-1.8,3.26-2.07,7.09-.83,10.55-3.31-.93-7.17-1.53-11.49-1.4-3.62.12-6.92.74-9.83,1.64-1.02-7.17.3-14.43,3.87-20.89,8.99-16.28,29.55-22.21,45.82-13.22,8.14,4.49,13.7,11.88,16.09,20.18,2.39,8.3,1.62,17.51-2.87,25.65Z"/>
  </g>
  <g>
    <g>
      <path class="cls-4" d="m370.37,720.38c-24.74,0-40.84-18.43-40.84-43.17s15.98-43.41,40.84-43.41c19.6,0,32.55,11.2,36.64,29.64l-21.12.93c-1.87-8.4-7.47-13.77-15.98-13.77-13.07,0-19.37,11.09-19.37,26.6s6.3,26.37,19.37,26.37c8.75,0,14.47-5.83,15.98-14.82l21.35.93c-3.97,19.02-16.92,30.69-36.87,30.69Z"/>
      <path class="cls-4" d="m432.2,656.67l.35,12.6c2.45-8.28,7.23-12.6,14.94-12.6h5.6v14.7h-5.72c-10.39,0-14.47,4.43-14.47,13.65v33.49h-20.3v-61.84h19.6Z"/>
      <path class="cls-4" d="m484.12,655.27c18.32,0,31.85,12.83,31.39,34.53v2.92h-43.29c.47,7.93,4.9,12.84,11.9,12.84,4.55,0,8.63-2.57,10.27-6.77l20.3,1.52c-3.85,12.02-15.63,19.6-30.57,19.6-19.95,0-33.02-12.84-33.02-32.32s13.07-32.32,33.02-32.32Zm11.08,26.14c-.7-8.17-5.48-11.79-11.08-11.79-6.65,0-11.08,4.43-11.78,11.79h22.87Z"/>
      <path class="cls-4" d="m550.15,655.27c19.84,0,29.75,9.1,29.75,27.3v17.5c0,4.55,1.87,5.25,3.97,5.25h2.1v13.19l-2.8.23c-3.15.12-17.5,2.33-19.72-9.57-3.15,6.65-10.27,10.73-22.05,10.73-12.6,0-22.17-6.77-22.17-17.73s8.17-15.75,23.57-18.78l16.57-3.38c0-8.52-2.92-12.49-9.22-12.49-5.37,0-8.63,3.15-9.68,9.57l-20.3-.93c2.45-13.65,12.72-20.88,29.99-20.88Zm-1.87,52.27c6.77,0,11.43-5.13,11.43-15.17v-.7l-8.75,1.63c-6.54,1.28-10.97,2.56-10.97,8.05,0,3.5,2.92,6.19,8.28,6.19Z"/>
      <path class="cls-4" d="m682.24,635.67v28.71c3.62-6.77,10.03-9.1,17.39-9.1,13.18,0,20.77,9.8,20.77,23.45v39.79h-20.3v-32.67c0-9.22-1.52-14.47-8.17-14.47s-9.68,5.25-9.68,14.47v32.67h-20.3v-82.84h20.3Z"/>
      <path class="cls-4" d="m756.32,655.27c19.84,0,29.75,9.1,29.75,27.3v17.5c0,4.55,1.87,5.25,3.97,5.25h2.1v13.19l-2.8.23c-3.15.12-17.5,2.33-19.72-9.57-3.15,6.65-10.27,10.73-22.05,10.73-12.6,0-22.17-6.77-22.17-17.73s8.17-15.75,23.57-18.78l16.57-3.38c0-8.52-2.92-12.49-9.22-12.49-5.37,0-8.63,3.15-9.68,9.57l-20.3-.93c2.45-13.65,12.72-20.88,29.99-20.88Zm-1.87,52.27c6.77,0,11.43-5.13,11.43-15.17v-.7l-8.75,1.63c-6.54,1.28-10.97,2.56-10.97,8.05,0,3.5,2.92,6.19,8.28,6.19Z"/>
      <path class="cls-4" d="m837.18,718.51l-.47-9.45c-3.38,7.94-10.15,10.85-18.09,10.85-13.07,0-21.24-8.75-21.24-23.45v-39.79h20.3v32.9c0,9.33,1.52,14.59,8.05,14.59s9.45-5.25,9.45-14.59v-32.9h20.3v61.84h-18.32Z"/>
      <path class="cls-4" d="m891.54,668.46c-4.79,0-8.28,2.56-8.05,6.53.23,3.96,4.55,5.83,10.15,6.65,19.72,3.03,28.12,8.05,28.12,19.6,0,12.37-11.44,18.67-28.59,18.67-19.25,0-30.92-7.82-31.97-21.12l20.3-.82c1.05,5.37,4.79,8.52,11.09,8.52,4.08,0,8.52-1.75,8.4-5.49-.12-4.55-5.02-5.71-10.73-6.76-19.02-3.5-27.65-8.17-27.65-19.25,0-12.49,10.62-19.84,29.52-19.84,16.68,0,27.42,7.82,29.4,21.24l-20.07.7c-.93-5.37-5.13-8.63-9.92-8.63Z"/>
      <path class="cls-4" d="m634,684.45c-.09.04-.17.09-.26.14-.18-.21-.42-.48-.72-.8.31.25.63.46.98.66Z"/>
      <path class="cls-4" d="m619.69,691.56c.26.32.61.72,1.05,1.2-.45-.35-.94-.66-1.45-.92.14-.1.27-.19.39-.29Z"/>
      <path class="cls-4" d="m642.78,646.07c-11.7-6.46-26.48-2.2-32.94,9.5-2.56,4.64-3.51,9.87-2.78,15.02,2.09-.64,4.46-1.09,7.06-1.18,3.11-.1,5.88.33,8.26,1-.89-2.49-.69-5.25.6-7.59,2.46-4.46,8.09-6.08,12.55-3.62,4.46,2.46,6.08,8.08,3.62,12.54-1.47,2.66-4.16,4.43-7.2,4.73-1.08.1-2.15.03-3.18-.24-.39-.09-.77-.21-1.13-.37-.35-.15-.7-.31-1.04-.5-.78-.43-1.57-.81-2.38-1.16l-.02-.04c-2.91-1.17-7-2.19-11.83-1.66-5.61.6-9.74,3-12.12,4.76-.12.09-.24.17-.36.27-.29.23-.54.43-.76.62-.18.14-.33.27-.46.39-1.98,1.77-3.68,3.9-5.01,6.31-3.12,5.66-3.86,12.21-2.07,18.44,1.8,6.23,5.91,11.38,11.57,14.5,5.67,3.13,12.21,3.86,18.44,2.07,6.23-1.8,11.38-5.9,14.5-11.57,2.57-4.66,3.53-9.89,2.78-15.06-1.62.5-3.4.88-5.35,1.07-3.8.37-7.17-.11-9.99-.89.92,2.5.72,5.28-.58,7.63-2.46,4.45-8.09,6.07-12.54,3.62-4.46-2.46-6.08-8.09-3.62-12.55,1.19-2.16,3.19-3.73,5.52-4.4.54-.16,1.1-.27,1.67-.33.88-.09,1.75-.05,2.59.11.57.11,1.12.27,1.66.48t.01,0c.37.13.73.31,1.09.5.79.43,1.58.82,2.39,1.15l.03.05c2.51.99,5.78,1.83,9.63,1.75,8.4-.19,13.99-4.62,15.56-5.97.02.02.04.03.06.04,2.11-1.82,3.89-4.03,5.27-6.53,3.23-5.85,3.79-12.47,2.07-18.44-1.72-5.96-5.72-11.27-11.57-14.5Z"/>
    </g>
    <path class="cls-3" d="m294.21,625.97l-55.32-38.77c-4.55-3.19-10.29-3.19-14.85,0l-55.32,38.77c-6.37,4.46-10.25,12.38-10.25,20.9v77.54c0,8.93,6.35,16.16,14.18,16.16h117.63c7.83,0,14.18-7.24,14.18-16.16v-77.54c0-8.52-3.88-16.44-10.25-20.9Zm-21.96,45.47c-1.92,3.48-4.4,6.56-7.33,9.09-.03-.02-.07-.04-.09-.06-2.18,1.87-9.95,8.04-21.65,8.3-5.35.12-9.9-1.05-13.39-2.43l-.04-.08c-1.13-.47-2.24-1.01-3.33-1.6-.5-.27-1-.52-1.51-.7t-.02,0c-.75-.3-1.52-.53-2.31-.67-1.17-.22-2.38-.28-3.6-.16-.78.08-1.56.23-2.32.45-3.24.94-6.03,3.12-7.68,6.12-3.43,6.2-1.17,14.03,5.04,17.46,6.2,3.41,14.02,1.16,17.45-5.03,1.81-3.27,2.09-7.14.81-10.62,3.92,1.09,8.61,1.75,13.9,1.24,2.7-.26,5.19-.79,7.44-1.48,1.04,7.19-.29,14.47-3.87,20.95-4.34,7.88-11.51,13.59-20.18,16.09-8.66,2.5-17.77,1.48-25.65-2.87-7.86-4.34-13.59-11.51-16.09-20.18-2.5-8.66-1.47-17.77,2.87-25.65,1.85-3.36,4.21-6.31,6.97-8.78.18-.17.39-.34.64-.54.31-.26.66-.55,1.06-.87.16-.13.33-.25.5-.37,3.31-2.44,9.05-5.78,16.86-6.62,6.72-.73,12.4.69,16.45,2.31l.03.05c1.13.48,2.24,1.01,3.32,1.61.48.26.96.49,1.45.69.51.21,1.03.38,1.57.51,1.43.38,2.92.48,4.42.34,4.23-.41,7.97-2.88,10.02-6.58,3.43-6.2,1.17-14.02-5.03-17.45-6.2-3.43-14.03-1.17-17.46,5.04-1.8,3.26-2.07,7.09-.83,10.55-3.31-.93-7.17-1.53-11.49-1.4-3.62.12-6.92.74-9.83,1.64-1.02-7.17.3-14.43,3.87-20.89,8.99-16.28,29.55-22.21,45.82-13.22,8.14,4.49,13.7,11.88,16.09,20.18,2.39,8.3,1.62,17.51-2.87,25.65Z"/>
  </g>
</svg>